<?xml version="1.0" encoding="utf-8"?>
<!-- Generator: Adobe Illustrator 24.1.3, SVG Export Plug-In . SVG Version: 6.00 Build 0)  -->
<svg version="1.1" id="Layer_1" xmlns="http://www.w3.org/2000/svg" xmlns:xlink="http://www.w3.org/1999/xlink" x="0px" y="0px"
	 viewBox="0 0 80 80" style="enable-background:new 0 0 80 80;" xml:space="preserve">
<style type="text/css">
	.st0{fill:none;stroke:#0FA655;stroke-width:2;stroke-miterlimit:10;}
	.st1{fill:none;stroke:#0FA655;stroke-width:2;stroke-linecap:round;stroke-miterlimit:10;}
	.st2{fill:#CDECDB;}
	.st3{fill:none;stroke:#0FA655;stroke-width:2;stroke-linecap:round;stroke-linejoin:round;}
</style>
<g id="ic_NhapKhau" transform="translate(1 0.846)">
	<path id="Path_59387" class="st0" d="M60.4,20.4v44.3c-0.1,2.6-2.3,4.7-5,4.6H12c-2.6,0.1-4.9-2-5-4.6V7.6C7.1,5,9.3,2.9,12,3h31.1
		"/>
	<path id="Path_59388" class="st0" d="M55.4,3"/>
	<line id="Line_1033" class="st1" x1="14.2" y1="36" x2="30.5" y2="36"/>
	<line id="Line_1034" class="st1" x1="14.2" y1="47.3" x2="36.7" y2="47.3"/>
	<line id="Line_1035" class="st1" x1="14.2" y1="58.4" x2="42.5" y2="58.4"/>
	<g id="Group_26925" transform="translate(27.595 36.405)">
		<circle id="Ellipse_462" class="st2" cx="25.2" cy="20.9" r="18.2"/>
		<circle id="Ellipse_463" class="st1" cx="25.2" cy="20.9" r="18.2"/>
		<g id="Group_26924" transform="translate(11.1 8.64)">
			<line id="Line_1036" class="st1" x1="14.1" y1="19.7" x2="14.1" y2="2.7"/>
			<path id="Path_59389" class="st3" d="M7,14.7l7.1,7.1l7.1-7.1"/>
		</g>
	</g>
	<path id="Path_59390" class="st2" d="M43,3v12.6c0,2.7,2.1,4.8,4.8,4.8l0,0h12.6L43,3z"/>
	<path id="Path_59391" class="st1" d="M47.5,2.7"/>
	<path id="Path_59392" class="st3" d="M43,3v12.6c0,2.7,2.1,4.8,4.8,4.8l0,0h12.6L43,3z"/>
	<g id="Group_26927" transform="translate(6.326 7.848)">
		<g id="Group_26926" transform="translate(0 0.071)">
			<circle id="Ellipse_464" class="st2" cx="13.1" cy="8.8" r="6.1"/>
		</g>
		<circle id="Ellipse_465" class="st0" cx="13.1" cy="8.8" r="6.1"/>
	</g>
</g>
</svg>
